<mxfile host="app.diagrams.net" agent="Mozilla/5.0 (Windows NT 10.0; Win64; x64) AppleWebKit/537.36 (KHTML, like Gecko) Chrome/130.0.0.0 Safari/537.36" version="24.8.0">
  <diagram name="Página-1" id="jdfmNlrVaud_phrdF24y">
    <mxGraphModel dx="1336" dy="682" grid="1" gridSize="10" guides="1" tooltips="1" connect="1" arrows="1" fold="1" page="1" pageScale="1" pageWidth="827" pageHeight="1169" math="0" shadow="0">
      <root>
        <mxCell id="0" />
        <mxCell id="1" parent="0" />
        <mxCell id="9LuYYJJKm-HVxJRt1TiP-6" style="edgeStyle=orthogonalEdgeStyle;rounded=0;orthogonalLoop=1;jettySize=auto;html=1;entryX=0;entryY=0.5;entryDx=0;entryDy=0;" edge="1" parent="1" source="9LuYYJJKm-HVxJRt1TiP-1" target="9LuYYJJKm-HVxJRt1TiP-2">
          <mxGeometry relative="1" as="geometry" />
        </mxCell>
        <mxCell id="9LuYYJJKm-HVxJRt1TiP-1" value="START" style="ellipse;whiteSpace=wrap;html=1;aspect=fixed;" vertex="1" parent="1">
          <mxGeometry x="90" y="170" width="80" height="80" as="geometry" />
        </mxCell>
        <mxCell id="9LuYYJJKm-HVxJRt1TiP-8" style="edgeStyle=orthogonalEdgeStyle;rounded=0;orthogonalLoop=1;jettySize=auto;html=1;exitX=1;exitY=0.5;exitDx=0;exitDy=0;" edge="1" parent="1" source="9LuYYJJKm-HVxJRt1TiP-2" target="9LuYYJJKm-HVxJRt1TiP-5">
          <mxGeometry relative="1" as="geometry" />
        </mxCell>
        <mxCell id="9LuYYJJKm-HVxJRt1TiP-9" style="edgeStyle=orthogonalEdgeStyle;rounded=0;orthogonalLoop=1;jettySize=auto;html=1;entryX=0.5;entryY=0;entryDx=0;entryDy=0;" edge="1" parent="1" source="9LuYYJJKm-HVxJRt1TiP-2" target="9LuYYJJKm-HVxJRt1TiP-3">
          <mxGeometry relative="1" as="geometry" />
        </mxCell>
        <mxCell id="9LuYYJJKm-HVxJRt1TiP-2" value="AVANCE" style="ellipse;whiteSpace=wrap;html=1;aspect=fixed;" vertex="1" parent="1">
          <mxGeometry x="360" y="170" width="80" height="80" as="geometry" />
        </mxCell>
        <mxCell id="9LuYYJJKm-HVxJRt1TiP-3" value="PARADA" style="ellipse;whiteSpace=wrap;html=1;aspect=fixed;" vertex="1" parent="1">
          <mxGeometry x="360" y="320" width="80" height="80" as="geometry" />
        </mxCell>
        <mxCell id="9LuYYJJKm-HVxJRt1TiP-5" value="FINAL" style="ellipse;whiteSpace=wrap;html=1;aspect=fixed;" vertex="1" parent="1">
          <mxGeometry x="590" y="170" width="80" height="80" as="geometry" />
        </mxCell>
        <mxCell id="9LuYYJJKm-HVxJRt1TiP-7" value="MáxDist &amp;lt; 5" style="text;html=1;align=center;verticalAlign=middle;whiteSpace=wrap;rounded=0;" vertex="1" parent="1">
          <mxGeometry x="210" y="180" width="90" height="30" as="geometry" />
        </mxCell>
        <mxCell id="9LuYYJJKm-HVxJRt1TiP-10" value="MinDist &amp;lt; 2" style="text;html=1;align=center;verticalAlign=middle;whiteSpace=wrap;rounded=0;" vertex="1" parent="1">
          <mxGeometry x="390" y="270" width="90" height="30" as="geometry" />
        </mxCell>
        <mxCell id="9LuYYJJKm-HVxJRt1TiP-11" value="MeanDist &amp;gt; 4.75" style="text;html=1;align=center;verticalAlign=middle;whiteSpace=wrap;rounded=0;" vertex="1" parent="1">
          <mxGeometry x="460" y="180" width="100" height="30" as="geometry" />
        </mxCell>
        <mxCell id="9LuYYJJKm-HVxJRt1TiP-13" value="" style="line;strokeWidth=2;html=1;" vertex="1" parent="1">
          <mxGeometry x="50" y="90" width="670" height="10" as="geometry" />
        </mxCell>
        <mxCell id="9LuYYJJKm-HVxJRt1TiP-16" value="" style="line;strokeWidth=2;html=1;" vertex="1" parent="1">
          <mxGeometry x="50" y="410" width="670" height="10" as="geometry" />
        </mxCell>
        <mxCell id="9LuYYJJKm-HVxJRt1TiP-17" value="" style="line;strokeWidth=4;direction=south;html=1;perimeter=backbonePerimeter;points=[];outlineConnect=0;" vertex="1" parent="1">
          <mxGeometry x="40" y="90" width="10" height="320" as="geometry" />
        </mxCell>
        <mxCell id="9LuYYJJKm-HVxJRt1TiP-18" value="" style="line;strokeWidth=4;direction=south;html=1;perimeter=backbonePerimeter;points=[];outlineConnect=0;" vertex="1" parent="1">
          <mxGeometry x="720" y="90" width="10" height="320" as="geometry" />
        </mxCell>
        <mxCell id="9LuYYJJKm-HVxJRt1TiP-23" style="edgeStyle=orthogonalEdgeStyle;rounded=0;orthogonalLoop=1;jettySize=auto;html=1;entryX=0;entryY=0.5;entryDx=0;entryDy=0;" edge="1" parent="1" source="9LuYYJJKm-HVxJRt1TiP-20" target="9LuYYJJKm-HVxJRt1TiP-21">
          <mxGeometry relative="1" as="geometry" />
        </mxCell>
        <mxCell id="9LuYYJJKm-HVxJRt1TiP-20" value="" style="whiteSpace=wrap;html=1;aspect=fixed;" vertex="1" parent="1">
          <mxGeometry x="60" y="470.5" width="110" height="110" as="geometry" />
        </mxCell>
        <mxCell id="9LuYYJJKm-HVxJRt1TiP-25" style="edgeStyle=orthogonalEdgeStyle;rounded=0;orthogonalLoop=1;jettySize=auto;html=1;entryX=0.5;entryY=1;entryDx=0;entryDy=0;" edge="1" parent="1" source="9LuYYJJKm-HVxJRt1TiP-21" target="9LuYYJJKm-HVxJRt1TiP-20">
          <mxGeometry relative="1" as="geometry">
            <Array as="points">
              <mxPoint x="418" y="670" />
              <mxPoint x="115" y="670" />
            </Array>
          </mxGeometry>
        </mxCell>
        <mxCell id="9LuYYJJKm-HVxJRt1TiP-21" value="ORIENTACIÓN" style="whiteSpace=wrap;html=1;aspect=fixed;" vertex="1" parent="1">
          <mxGeometry x="375" y="483" width="85" height="85" as="geometry" />
        </mxCell>
        <mxCell id="9LuYYJJKm-HVxJRt1TiP-22" value="E1" style="whiteSpace=wrap;html=1;aspect=fixed;" vertex="1" parent="1">
          <mxGeometry x="75" y="488" width="80" height="80" as="geometry" />
        </mxCell>
        <mxCell id="9LuYYJJKm-HVxJRt1TiP-24" value="MinDist &amp;lt; 2" style="text;html=1;align=center;verticalAlign=middle;whiteSpace=wrap;rounded=0;" vertex="1" parent="1">
          <mxGeometry x="230" y="500" width="80" height="30" as="geometry" />
        </mxCell>
        <mxCell id="9LuYYJJKm-HVxJRt1TiP-26" value="MinDist &amp;gt; 2" style="text;html=1;align=center;verticalAlign=middle;whiteSpace=wrap;rounded=0;" vertex="1" parent="1">
          <mxGeometry x="220" y="640" width="80" height="30" as="geometry" />
        </mxCell>
        <mxCell id="9LuYYJJKm-HVxJRt1TiP-27" value="&lt;font style=&quot;font-size: 18px;&quot;&gt;E1&lt;/font&gt;" style="text;html=1;align=center;verticalAlign=middle;whiteSpace=wrap;rounded=0;" vertex="1" parent="1">
          <mxGeometry x="70" y="60" width="60" height="30" as="geometry" />
        </mxCell>
      </root>
    </mxGraphModel>
  </diagram>
</mxfile>
